<svg aria-label="AI Clip Editor" class="project-shot-image" role="img" viewBox="0 0 720 450" xmlns="http://www.w3.org/2000/svg">
<rect fill="#111827" height="450" rx="30" width="720"></rect>
<rect fill="#0b1220" height="414" rx="24" stroke="#334155" width="684" x="18" y="18"></rect>
<circle cx="48" cy="47" fill="#fb7185" r="6"></circle><circle cx="68" cy="47" fill="#fbbf24" r="6"></circle><circle cx="88" cy="47" fill="#34d399" r="6"></circle>
<rect fill="#1e293b" height="16" rx="8" width="180" x="112" y="39"></rect>
<rect fill="#334155" height="1" width="684" x="18" y="72"></rect>
<text fill="#e2e8f0" font-family="Inter,Arial" font-size="19" font-weight="700" x="42" y="105">AI Clip Editor</text>
<rect fill="#090f1c" height="200" rx="18" stroke="#334155" width="382" x="42" y="125"></rect><rect fill="#151a2d" height="164" rx="12" width="348" x="59" y="143"></rect><path d="M204 190l0 70 62-35z" fill="#22d3ee" opacity=".9"></path>
<rect fill="#121827" height="200" rx="18" stroke="#1e293b" width="236" x="442" y="125"></rect><text fill="#cbd5e1" font-family="Inter,Arial" font-size="12" font-weight="700" x="462" y="153">AI TRANSCRIPT</text>
<g fill="#334155"><rect height="8" rx="4" width="184" x="462" y="174"></rect><rect height="8" rx="4" width="158" x="462" y="194"></rect><rect height="8" rx="4" width="195" x="462" y="214"></rect><rect height="8" rx="4" width="138" x="462" y="234"></rect></g><rect fill="#164e63" height="43" rx="10" width="204" x="458" y="260"></rect><text fill="#a5f3fc" font-family="Inter,Arial" font-size="11" font-weight="700" x="476" y="286">VIRAL MOMENT DETECTED · 92%</text>
<rect fill="#111827" height="60" rx="16" stroke="#1e293b" width="636" x="42" y="343"></rect><g fill="#312e81"><rect height="25" rx="6" width="74" x="65" y="361"></rect><rect height="25" rx="6" width="42" x="146" y="361"></rect><rect height="25" rx="6" width="98" x="195" y="361"></rect><rect height="25" rx="6" width="61" x="300" y="361"></rect><rect height="25" rx="6" width="112" x="368" y="361"></rect><rect height="25" rx="6" width="52" x="487" y="361"></rect><rect height="25" rx="6" width="106" x="546" y="361"></rect></g><path d="M320 348v50" stroke="#22d3ee" stroke-width="3"></path>
</svg>

