<svg aria-label="API &amp; Service Metrics" class="project-shot-image" role="img" viewBox="0 0 720 450" xmlns="http://www.w3.org/2000/svg">
<rect fill="#111827" height="450" rx="30" width="720"></rect>
<rect fill="#0b1220" height="414" rx="24" stroke="#334155" width="684" x="18" y="18"></rect>
<circle cx="48" cy="47" fill="#fb7185" r="6"></circle><circle cx="68" cy="47" fill="#fbbf24" r="6"></circle><circle cx="88" cy="47" fill="#34d399" r="6"></circle>
<rect fill="#1e293b" height="16" rx="8" width="180" x="112" y="39"></rect>
<rect fill="#334155" height="1" width="684" x="18" y="72"></rect>
<text fill="#e2e8f0" font-family="Inter,Arial" font-size="19" font-weight="700" x="42" y="105">API &amp; Service Metrics</text>
<rect fill="#13213a" height="74" rx="16" width="190" x="42" y="125"></rect><text fill="#94a3b8" font-family="Inter,Arial" font-size="10" x="62" y="151">REQUESTS / MIN</text><text fill="#f8fafc" font-family="Inter,Arial" font-size="25" font-weight="700" x="62" y="181">8,420</text><rect fill="#17172d" height="74" rx="16" width="190" x="248" y="125"></rect><text fill="#94a3b8" font-family="Inter,Arial" font-size="10" x="268" y="151">P95 LATENCY</text><text fill="#f8fafc" font-family="Inter,Arial" font-size="25" font-weight="700" x="268" y="181">84 ms</text><rect fill="#123128" height="74" rx="16" width="224" x="454" y="125"></rect><text fill="#94a3b8" font-family="Inter,Arial" font-size="10" x="474" y="151">UPTIME</text><text fill="#f8fafc" font-family="Inter,Arial" font-size="25" font-weight="700" x="474" y="181">99.99%</text>
<rect fill="#101827" height="187" rx="18" stroke="#1e293b" width="408" x="42" y="216"></rect><text fill="#cbd5e1" font-family="Inter,Arial" font-size="12" font-weight="700" x="64" y="246">Traffic &amp; latency</text><path d="M64 353 C110 330 141 367 183 322 S260 349 301 295 S374 321 426 265" fill="none" stroke="#22d3ee" stroke-width="4"></path><path d="M64 364 C110 348 141 372 183 349 S260 363 301 335 S374 351 426 322" fill="none" opacity=".9" stroke="#a78bfa" stroke-width="3"></path><g fill="#334155"><rect height="1" width="362" x="64" y="375"></rect><rect height="1" width="362" x="64" y="330"></rect><rect height="1" width="362" x="64" y="285"></rect></g>
<rect fill="#111827" height="187" rx="18" stroke="#1e293b" width="210" x="468" y="216"></rect><text fill="#cbd5e1" font-family="Inter,Arial" font-size="12" font-weight="700" x="489" y="246">TOP ENDPOINTS</text><g font-family="Inter,Arial" font-size="10"><text fill="#93c5fd" x="489" y="277">GET</text><text fill="#e2e8f0" x="526" y="277">/api/bookings</text><text fill="#86efac" x="489" y="310">POST</text><text fill="#e2e8f0" x="526" y="310">/api/orders</text><text fill="#93c5fd" x="489" y="343">GET</text><text fill="#e2e8f0" x="526" y="343">/api/slots</text></g><g fill="#334155"><rect height="1" width="168" x="489" y="289"></rect><rect height="1" width="168" x="489" y="322"></rect></g><rect fill="#064e3b" height="18" rx="9" width="168" x="489" y="365"></rect><text fill="#6ee7b7" font-family="Inter,Arial" font-size="9" font-weight="700" x="535" y="378">ALL SYSTEMS HEALTHY</text>
</svg>

