<svg aria-label="Appointment Detail" class="project-shot-image" role="img" viewBox="0 0 720 450" xmlns="http://www.w3.org/2000/svg">
<rect fill="#111827" height="450" rx="30" width="720"></rect>
<rect fill="#0b1220" height="414" rx="24" stroke="#334155" width="684" x="18" y="18"></rect>
<circle cx="48" cy="47" fill="#fb7185" r="6"></circle><circle cx="68" cy="47" fill="#fbbf24" r="6"></circle><circle cx="88" cy="47" fill="#34d399" r="6"></circle>
<rect fill="#1e293b" height="16" rx="8" width="180" x="112" y="39"></rect>
<rect fill="#334155" height="1" width="684" x="18" y="72"></rect>
<text fill="#e2e8f0" font-family="Inter,Arial" font-size="19" font-weight="700" x="42" y="105">Appointment Detail</text>
<rect fill="#111827" height="278" rx="18" stroke="#1e293b" width="250" x="42" y="125"></rect><circle cx="167" cy="180" fill="#155e75" r="35"></circle><text fill="#cffafe" font-family="Inter,Arial" font-size="24" font-weight="700" x="150" y="190">AP</text><text fill="#f8fafc" font-family="Inter,Arial" font-size="15" font-weight="700" x="112" y="238">Alya Putri</text><text fill="#94a3b8" font-family="Inter,Arial" font-size="10" x="101" y="260">alya@example.com</text><rect fill="#13213a" height="44" rx="12" width="196" x="69" y="288"></rect><text fill="#64748b" font-family="Inter,Arial" font-size="9" x="86" y="307">SERVICE</text><text fill="#e2e8f0" font-family="Inter,Arial" font-size="11" x="86" y="323">Backend Consultation</text><rect fill="#155e75" height="38" rx="11" width="196" x="69" y="345"></rect><text fill="#cffafe" font-family="Inter,Arial" font-size="11" font-weight="700" x="118" y="369">CONFIRMED</text>
<rect fill="#101827" height="126" rx="18" stroke="#1e293b" width="368" x="310" y="125"></rect><text fill="#cbd5e1" font-family="Inter,Arial" font-size="12" font-weight="700" x="334" y="157">SCHEDULE</text><rect fill="#172554" height="52" rx="12" width="147" x="334" y="174"></rect><text fill="#64748b" font-family="Inter,Arial" font-size="9" x="349" y="194">DATE</text><text fill="#e2e8f0" font-family="Inter,Arial" font-size="12" x="349" y="214">June 24, 2026</text><rect fill="#164e63" height="52" rx="12" width="156" x="498" y="174"></rect><text fill="#67e8f9" font-family="Inter,Arial" font-size="9" x="513" y="194">TIME</text><text fill="#cffafe" font-family="Inter,Arial" font-size="12" x="513" y="214">09:30 — 10:30</text>
<rect fill="#111827" height="134" rx="18" stroke="#1e293b" width="368" x="310" y="269"></rect><text fill="#cbd5e1" font-family="Inter,Arial" font-size="12" font-weight="700" x="334" y="301">STATUS TIMELINE</text><path d="M354 327h260" stroke="#334155" stroke-linecap="round" stroke-width="4"></path><circle cx="354" cy="327" fill="#22d3ee" r="9"></circle><circle cx="440" cy="327" fill="#22d3ee" r="9"></circle><circle cx="527" cy="327" fill="#22d3ee" r="9"></circle><circle cx="614" cy="327" fill="#334155" r="9"></circle><g fill="#94a3b8" font-family="Inter,Arial" font-size="9"><text x="333" y="360">Created</text><text x="418" y="360">Paid</text><text x="500" y="360">Confirmed</text><text x="592" y="360">Completed</text></g>
</svg>

