<svg aria-label="Booking Calendar" class="project-shot-image" role="img" viewBox="0 0 720 450" xmlns="http://www.w3.org/2000/svg">
<rect fill="#111827" height="450" rx="30" width="720"></rect>
<rect fill="#0b1220" height="414" rx="24" stroke="#334155" width="684" x="18" y="18"></rect>
<circle cx="48" cy="47" fill="#fb7185" r="6"></circle><circle cx="68" cy="47" fill="#fbbf24" r="6"></circle><circle cx="88" cy="47" fill="#34d399" r="6"></circle>
<rect fill="#1e293b" height="16" rx="8" width="180" x="112" y="39"></rect>
<rect fill="#334155" height="1" width="684" x="18" y="72"></rect>
<text fill="#e2e8f0" font-family="Inter,Arial" font-size="19" font-weight="700" x="42" y="105">Booking Calendar</text>
<rect fill="#101827" height="278" rx="18" stroke="#1e293b" width="460" x="42" y="125"></rect><text fill="#e2e8f0" font-family="Inter,Arial" font-size="14" font-weight="700" x="66" y="158">June 2026</text><text fill="#67e8f9" font-family="Inter,Arial" font-size="11" x="418" y="158">TODAY</text>
<g fill="#64748b" font-family="Inter,Arial" font-size="10"><text x="72" y="192">MON</text><text x="132" y="192">TUE</text><text x="192" y="192">WED</text><text x="252" y="192">THU</text><text x="312" y="192">FRI</text><text x="372" y="192">SAT</text><text x="432" y="192">SUN</text></g>
<g fill="#172033"><rect height="42" rx="10" width="42" x="65" y="207"></rect><rect height="42" rx="10" width="42" x="125" y="207"></rect><rect height="42" rx="10" width="42" x="185" y="207"></rect><rect fill="#155e75" height="42" rx="10" width="42" x="245" y="207"></rect><rect height="42" rx="10" width="42" x="305" y="207"></rect><rect height="42" rx="10" width="42" x="365" y="207"></rect><rect height="42" rx="10" width="42" x="425" y="207"></rect><rect height="42" rx="10" width="42" x="65" y="262"></rect><rect height="42" rx="10" width="42" x="125" y="262"></rect><rect height="42" rx="10" width="42" x="185" y="262"></rect><rect height="42" rx="10" width="42" x="245" y="262"></rect><rect height="42" rx="10" width="42" x="305" y="262"></rect><rect height="42" rx="10" width="42" x="365" y="262"></rect><rect height="42" rx="10" width="42" x="425" y="262"></rect><rect height="42" rx="10" width="42" x="65" y="317"></rect><rect height="42" rx="10" width="42" x="125" y="317"></rect><rect height="42" rx="10" width="42" x="185" y="317"></rect><rect height="42" rx="10" width="42" x="245" y="317"></rect><rect height="42" rx="10" width="42" x="305" y="317"></rect><rect height="42" rx="10" width="42" x="365" y="317"></rect><rect height="42" rx="10" width="42" x="425" y="317"></rect></g>
<g fill="#cbd5e1" font-family="Inter,Arial" font-size="11"><text x="82" y="233">1</text><text x="142" y="233">2</text><text x="202" y="233">3</text><text fill="#cffafe" font-weight="700" x="262" y="233">4</text><text x="322" y="233">5</text><text x="382" y="233">6</text><text x="442" y="233">7</text></g>
<rect fill="#13213a" height="278" rx="18" width="158" x="520" y="125"></rect><text fill="#cbd5e1" font-family="Inter,Arial" font-size="12" font-weight="700" x="541" y="158">UPCOMING</text><rect fill="#172554" height="76" rx="12" width="118" x="540" y="180"></rect><text fill="#93c5fd" font-family="Inter,Arial" font-size="10" x="554" y="204">09:30</text><text fill="#f8fafc" font-family="Inter,Arial" font-size="11" font-weight="700" x="554" y="227">Consultation</text><text fill="#94a3b8" font-family="Inter,Arial" font-size="9" x="554" y="245">Alya Putri</text><rect fill="#164e63" height="76" rx="12" width="118" x="540" y="270"></rect><text fill="#67e8f9" font-family="Inter,Arial" font-size="10" x="554" y="294">13:00</text><text fill="#f8fafc" font-family="Inter,Arial" font-size="11" font-weight="700" x="554" y="317">Technical Call</text><text fill="#94a3b8" font-family="Inter,Arial" font-size="9" x="554" y="335">PT Nusantara</text>
</svg>

