<svg aria-label="Dashboard Overview" class="project-shot-image" role="img" viewBox="0 0 720 450" xmlns="http://www.w3.org/2000/svg">
<rect fill="#111827" height="450" rx="30" width="720"></rect>
<rect fill="#0b1220" height="414" rx="24" stroke="#334155" width="684" x="18" y="18"></rect>
<circle cx="48" cy="47" fill="#fb7185" r="6"></circle><circle cx="68" cy="47" fill="#fbbf24" r="6"></circle><circle cx="88" cy="47" fill="#34d399" r="6"></circle>
<rect fill="#1e293b" height="16" rx="8" width="180" x="112" y="39"></rect>
<rect fill="#334155" height="1" width="684" x="18" y="72"></rect>
<text fill="#e2e8f0" font-family="Inter,Arial" font-size="19" font-weight="700" x="42" y="105">Dashboard Overview</text>
<rect fill="#111c2f" height="278" rx="18" width="132" x="42" y="125"></rect>
<rect fill="#164e63" height="34" rx="10" width="100" x="58" y="147"></rect><rect fill="#67e8f9" height="8" rx="4" width="54" x="70" y="159"></rect>
<rect fill="#334155" height="9" rx="4.5" width="82" x="58" y="199"></rect><rect fill="#334155" height="9" rx="4.5" width="96" x="58" y="224"></rect><rect fill="#334155" height="9" rx="4.5" width="72" x="58" y="249"></rect>
<rect fill="#13213a" height="74" rx="16" width="146" x="194" y="125"></rect><text fill="#94a3b8" font-family="Inter,Arial" font-size="11" x="212" y="151">TOTAL ORDERS</text><text fill="#f8fafc" font-family="Inter,Arial" font-size="24" font-weight="700" x="212" y="180">12,480</text>
<rect fill="#18233f" height="74" rx="16" width="146" x="354" y="125"></rect><text fill="#94a3b8" font-family="Inter,Arial" font-size="11" x="372" y="151">REVENUE</text><text fill="#f8fafc" font-family="Inter,Arial" font-size="24" font-weight="700" x="372" y="180">$84.2K</text>
<rect fill="#211d42" height="74" rx="16" width="164" x="514" y="125"></rect><text fill="#94a3b8" font-family="Inter,Arial" font-size="11" x="532" y="151">SUCCESS RATE</text><text fill="#f8fafc" font-family="Inter,Arial" font-size="24" font-weight="700" x="532" y="180">98.7%</text>
<rect fill="#111827" height="187" rx="18" stroke="#1e293b" width="484" x="194" y="216"></rect>
<text fill="#cbd5e1" font-family="Inter,Arial" font-size="13" font-weight="600" x="216" y="246">Revenue performance</text>
<path d="M218 359 C270 340 286 365 332 322 S410 340 452 286 S535 308 574 258 S636 275 656 235" fill="none" stroke="#22d3ee" stroke-linecap="round" stroke-width="5"></path>
<path d="M218 359 C270 340 286 365 332 322 S410 340 452 286 S535 308 574 258 S636 275 656 235 L656 382 L218 382Z" fill="#22d3ee" opacity=".08"></path>
<g fill="#334155"><rect height="1" width="438" x="218" y="376"></rect><rect height="1" width="438" x="218" y="331"></rect><rect height="1" width="438" x="218" y="286"></rect></g>
</svg>

