<svg aria-label="Export Presets" class="project-shot-image" role="img" viewBox="0 0 720 450" xmlns="http://www.w3.org/2000/svg">
<rect fill="#111827" height="450" rx="30" width="720"></rect>
<rect fill="#0b1220" height="414" rx="24" stroke="#334155" width="684" x="18" y="18"></rect>
<circle cx="48" cy="47" fill="#fb7185" r="6"></circle><circle cx="68" cy="47" fill="#fbbf24" r="6"></circle><circle cx="88" cy="47" fill="#34d399" r="6"></circle>
<rect fill="#1e293b" height="16" rx="8" width="180" x="112" y="39"></rect>
<rect fill="#334155" height="1" width="684" x="18" y="72"></rect>
<text fill="#e2e8f0" font-family="Inter,Arial" font-size="19" font-weight="700" x="42" y="105">Export Presets</text>
<text fill="#94a3b8" font-family="Inter,Arial" font-size="12" x="42" y="135">SELECT OUTPUT FORMAT</text>
<rect fill="#1e1b4b" height="180" rx="18" stroke="#8b5cf6" stroke-width="2" width="188" x="42" y="153"></rect><rect fill="#0f172a" height="118" rx="12" width="66" x="68" y="178"></rect><rect fill="#312e81" height="80" rx="7" width="48" x="77" y="188"></rect><text fill="#f8fafc" font-family="Inter,Arial" font-size="17" font-weight="700" x="151" y="211">9:16</text><text fill="#c4b5fd" font-family="Inter,Arial" font-size="11" x="151" y="235">Shorts / Reels</text><circle cx="195" cy="294" fill="#8b5cf6" r="12"></circle><path d="m189 294 4 4 8-9" fill="none" stroke="white" stroke-width="2.5"></path>
<rect fill="#111827" height="180" rx="18" stroke="#334155" width="188" x="246" y="153"></rect><rect fill="#172554" height="82" rx="12" width="144" x="268" y="196"></rect><text fill="#94a3b8" font-family="Inter,Arial" font-size="11" x="288" y="311">16:9 · YouTube</text>
<rect fill="#111827" height="180" rx="18" stroke="#334155" width="228" x="450" y="153"></rect><text fill="#cbd5e1" font-family="Inter,Arial" font-size="12" font-weight="700" x="473" y="185">EXPORT SETTINGS</text><text fill="#64748b" font-family="Inter,Arial" font-size="10" x="473" y="218">QUALITY</text><rect fill="#20243b" height="34" rx="9" width="182" x="473" y="230"></rect><text fill="#e2e8f0" font-family="Inter,Arial" font-size="11" x="489" y="251">1080p · High</text><rect fill="#7c3aed" height="34" rx="9" width="182" x="473" y="280"></rect><text fill="white" font-family="Inter,Arial" font-size="12" font-weight="700" x="518" y="301">EXPORT CLIP</text>
<rect fill="#101827" height="48" rx="14" width="636" x="42" y="355"></rect><text fill="#94a3b8" font-family="Inter,Arial" font-size="11" x="62" y="384">3 clips ready · Estimated export time 00:42</text><rect fill="#1e293b" height="12" rx="6" width="150" x="500" y="373"></rect><rect fill="#22d3ee" height="12" rx="6" width="105" x="500" y="373"></rect>
</svg>

