<svg xmlns="http://www.w3.org/2000/svg" aria-label="Ilustrasi programmer Fajar Cahyadiputra" class="h-full w-full" data-i18n-aria="avatarLabel" role="img" viewBox="0 0 500 500">
<defs>
<lineargradient id="avatarBg" x1="0" x2="1" y1="0" y2="1"><stop stop-color="#101c36"></stop><stop offset=".5" stop-color="#11152a"></stop><stop offset="1" stop-color="#090b14"></stop></lineargradient>
<lineargradient id="hoodie" x1="0" x2="1" y1="0" y2="1"><stop stop-color="#22d3ee"></stop><stop offset=".45" stop-color="#3b82f6"></stop><stop offset="1" stop-color="#8b5cf6"></stop></lineargradient>
<radialgradient id="halo"><stop stop-color="#60a5fa" stop-opacity=".44"></stop><stop offset="1" stop-color="#60a5fa" stop-opacity="0"></stop></radialgradient>
</defs>
<rect fill="url(#avatarBg)" height="500" width="500"></rect>
<circle cx="250" cy="205" fill="url(#halo)" r="180"></circle>
<path d="M45 420c38-98 111-142 205-142s167 44 205 142v80H45Z" fill="url(#hoodie)" opacity=".92"></path>
<path d="M156 499c10-108 24-170 94-194 70 24 84 86 94 194Z" fill="#101827" opacity=".94"></path>
<ellipse cx="250" cy="213" fill="#cf9274" rx="93" ry="113"></ellipse>
<path d="M161 207c-7-93 35-140 91-140 61 0 101 45 91 140-19-31-45-46-79-45-36 1-66 17-103 45Z" fill="#0b0e18"></path>
<path d="M172 148c21-73 130-88 168-7-43-19-110-22-168 7Z" fill="#141925"></path>
<path d="M173 234c8 89 50 130 77 130 33 0 73-46 78-130-13 58-44 86-78 86s-63-26-77-86Z" fill="#bd765d" opacity=".26"></path>
<ellipse cx="213" cy="219" fill="#111827" rx="8" ry="5"></ellipse><ellipse cx="289" cy="219" fill="#111827" rx="8" ry="5"></ellipse>
<path d="M222 268c16 12 40 12 56 0" fill="none" stroke="#7e4039" stroke-linecap="round" stroke-width="7"></path>
<path d="M194 196c12-7 26-8 39-2M271 194c13-6 26-5 38 2" fill="none" stroke="#171923" stroke-linecap="round" stroke-width="7"></path>
<path d="M248 218c-5 14-8 27-3 35 5 5 12 5 18 1" fill="none" stroke="#a45d4d" stroke-linecap="round" stroke-width="5"></path>
<path d="M178 173c-22 10-27 41-16 64 6 13 17 20 29 17M322 173c22 10 27 41 16 64-6 13-17 20-29 17" fill="#c78369"></path>
<g opacity=".88">
<rect fill="#080c15" height="96" rx="18" stroke="#67e8f9" stroke-opacity=".28" width="340" x="80" y="390"></rect>
<rect fill="#111827" height="48" rx="8" width="296" x="102" y="410"></rect>
<path d="m138 434 18-13m-18 13 18 13M362 421l-18 26M207 444h75" fill="none" stroke="#67e8f9" stroke-linecap="round" stroke-linejoin="round" stroke-width="6"></path>
</g>
</svg>

